<svg width="180" height="50" viewBox="0 0 180 50" fill="none" xmlns="http://www.w3.org/2000/svg">
<rect width="180" height="50" fill="#25F475"/>
<path d="M29.5455 19.7188C29.6136 18.7557 29.358 18.0099 28.7784 17.4815C28.2074 16.9531 27.304 16.6889 26.0682 16.6889C25.25 16.6889 24.5511 16.7955 23.9716 17.0085C23.392 17.2131 22.9361 17.5028 22.6037 17.8778C22.2713 18.2443 22.0625 18.6705 21.9773 19.1562C21.9006 19.5398 21.9219 19.8807 22.0412 20.179C22.1605 20.4773 22.3693 20.7415 22.6676 20.9716C22.9744 21.2017 23.3537 21.402 23.8054 21.5724C24.2656 21.7429 24.7813 21.892 25.3523 22.0199L27.5 22.5312C28.7443 22.8125 29.8224 23.1875 30.7344 23.6562C31.6548 24.1165 32.4006 24.6747 32.9716 25.331C33.5426 25.9787 33.9347 26.7244 34.1477 27.5682C34.3608 28.4119 34.3778 29.358 34.1989 30.4062C33.9261 32.0597 33.2741 33.4787 32.2429 34.6634C31.2202 35.848 29.8821 36.7557 28.2287 37.3864C26.5838 38.017 24.6705 38.3324 22.4886 38.3324C20.3068 38.3324 18.4531 38.0043 16.9276 37.348C15.4105 36.6832 14.3111 35.6818 13.6293 34.3438C12.9474 33.0057 12.7642 31.3182 13.0795 29.2812H19.1264C19.0327 30.125 19.1392 30.8281 19.446 31.3906C19.7614 31.9531 20.2472 32.3793 20.9034 32.669C21.5597 32.9588 22.3523 33.1037 23.2812 33.1037C24.1335 33.1037 24.8793 32.9886 25.5185 32.7585C26.1662 32.5284 26.6818 32.2088 27.0653 31.7997C27.4574 31.3906 27.696 30.9219 27.7812 30.3935C27.8665 29.9077 27.7855 29.4858 27.5384 29.1278C27.2997 28.7699 26.8906 28.4588 26.3111 28.1946C25.7401 27.9304 24.9901 27.6918 24.0611 27.4787L21.4403 26.8395C19.2756 26.3111 17.6349 25.4673 16.5185 24.3082C15.4105 23.1491 15.0185 21.5767 15.3423 19.5909C15.6151 17.9631 16.2884 16.5398 17.3622 15.321C18.4446 14.1023 19.8125 13.1562 21.4659 12.483C23.1278 11.8011 24.956 11.4602 26.9503 11.4602C28.9787 11.4602 30.6832 11.8054 32.0639 12.4957C33.4531 13.1776 34.4545 14.1406 35.0682 15.3849C35.6903 16.6207 35.8693 18.0653 35.6051 19.7188H29.5455ZM36.142 38L40.4886 11.8182H51.304C53.2642 11.8182 54.8963 12.1974 56.2003 12.956C57.5043 13.7145 58.429 14.7756 58.9744 16.1392C59.5199 17.5028 59.6435 19.0838 59.3452 20.8821C59.0554 22.6974 58.4034 24.2784 57.3892 25.625C56.3835 26.9716 55.0881 28.0156 53.5028 28.7571C51.9176 29.4986 50.1151 29.8693 48.0952 29.8693H41.4347L42.2656 24.8835H47.7628C48.7259 24.8835 49.5568 24.7173 50.2557 24.3849C50.9631 24.0526 51.5298 23.5881 51.956 22.9915C52.3821 22.3949 52.6634 21.6918 52.7997 20.8821C52.9276 20.0724 52.8764 19.3736 52.6463 18.7855C52.4162 18.1889 52.0028 17.7287 51.4062 17.4048C50.8182 17.081 50.0511 16.919 49.1051 16.919H45.9858L42.4702 38H36.142ZM86.4123 25.3182C85.935 28.1392 84.9975 30.5213 83.5998 32.4645C82.2106 34.3991 80.5188 35.8651 78.5245 36.8622C76.5387 37.8594 74.4038 38.358 72.1197 38.358C69.7077 38.358 67.6197 37.821 65.8555 36.7472C64.0913 35.6733 62.8086 34.1094 62.0075 32.0554C61.2148 30.0014 61.0614 27.5085 61.5472 24.5767C62.0075 21.7557 62.9322 19.3693 64.3214 17.4176C65.7191 15.4659 67.4194 13.9872 69.4222 12.9815C71.4336 11.9673 73.5898 11.4602 75.891 11.4602C78.2859 11.4602 80.3612 12.0014 82.1168 13.0838C83.881 14.1662 85.1594 15.7386 85.9521 17.8011C86.7447 19.8636 86.8981 22.3693 86.4123 25.3182ZM80.0842 24.5767C80.3484 22.9318 80.3484 21.5469 80.0842 20.4219C79.8285 19.2969 79.3256 18.4489 78.5756 17.8778C77.8256 17.2983 76.8498 17.0085 75.6481 17.0085C74.3185 17.0085 73.1168 17.3366 72.043 17.9929C70.9776 18.6406 70.087 19.5866 69.3711 20.831C68.6552 22.0668 68.1566 23.5625 67.8754 25.3182C67.5856 26.9801 67.5771 28.3651 67.8498 29.473C68.131 30.581 68.6552 31.4162 69.4222 31.9787C70.1893 32.5327 71.1651 32.8097 72.3498 32.8097C73.6708 32.8097 74.8597 32.4901 75.9165 31.8509C76.9734 31.2116 77.8555 30.2784 78.5629 29.0511C79.2788 27.8239 79.7859 26.3324 80.0842 24.5767ZM89.4229 16.9574L90.2923 11.8182H112.422L111.552 16.9574H103.613L100.136 38H93.8974L97.3746 16.9574H89.4229ZM121.84 11.8182L117.494 38H111.165L115.512 11.8182H121.84ZM121.466 38L125.813 11.8182H143.685L142.816 16.9574H131.272L130.402 22.3267H140.809L139.939 27.4787H129.533L127.794 38H121.466ZM145.567 11.8182H152.637L156.344 22.7741H156.613L163.938 11.8182H171.008L158.543 29.2557L157.086 38H150.796L152.266 29.2557L145.567 11.8182Z" fill="black"/>
</svg>
